Patient4_TMGait_0pt3_01_left_07_EMG.mot
version=1
nRows=23
nColumns=33
inDegrees=no
endheader
time	1LAddLong	2LGlutMax	3LGlutMed	4LIliopsoas	5LSemiMemb	6LBicFemLong	7LRecFem	8LVastMed	9LVastLat	10LGasMed	11LTibAnt	12lTibPost	13LPeroneusLong	14LSol	15LExtDigLong	16LFlexDigLong	17RAddLong	18RGlutMax	19RGlutMed	20RIliopsoas	21RSemiMemb	22RBicFemLong	23RRecFem	24RVastMed	25RVastLat	26RGasMed	27RTibAnt	28RTibPost	29RPeroneusLong	30RSol	31RExtDigLong	32RFlexDigLong
13.895	-0.001984	-0.048065	-0.14023	0.016785	0.028076	-0.1088	0.062256	0.013275	-0.083466	-0.15961	-0.025787	0.005035	-0.073242	-0.095978	-0.093536	-0.009003	-0.005341	0.040436	-0.033875	-0.026398	0.056152	0.023956	0.121	0.012817	-0.035553	-0.007324	0.10574	-0.008087	0.005188	0.030212	-0.001526	-0.014954
13.896	0.020905	-0.068512	-0.086975	0.01297	-0.062866	-0.11261	-0.031433	0.006866	-0.021057	-0.10773	-0.029907	0.00473	-0.14313	0.093231	-0.057526	-0.007324	-0.001221	0.038452	0.21286	-0.036163	0.00824	0.044403	0.13107	-0.007324	-0.058899	-0.008087	-0.12878	-0.000763	-0.040131	0.032043	-0.001678	-0.021362
13.897	0.032959	-0.040436	-0.085297	0.000458	-0.016174	0.083313	0.02594	0.005035	0.01358	-0.10498	-0.013428	0.000305	0.009308	0.054016	-0.005341	-0.004425	0.007782	0.048218	0.31357	-0.052338	-0.022278	0.03418	0.074463	-0.017242	-0.065308	-0.009308	-0.001221	-0.003815	-0.049591	0.035858	-0.000916	-0.016022
13.898	0.026398	-0.049133	-0.14999	-0.005188	0.078125	0.15091	0.034485	0.008087	0.019989	-0.065308	0.11002	0.001678	0.2507	0.14053	0.090332	0.002747	0.021667	0.000305	-0.080566	0.056305	0.042114	0.018768	-0.012054	-0.071106	-0.037689	-0.010681	-0.032196	-0.006409	-0.032043	0.019836	-0.003052	-0.023193
13.899	0.016022	-0.059509	-0.13412	0.008087	0.091705	0.074158	0.039063	0.005646	0.015411	0.02243	0.12909	0.007324	0.02655	0.085602	0.15396	-0.001526	0.028992	-0.018158	-0.15778	0.053406	0.17746	0.093842	-0.063934	-0.044861	-0.031281	-0.002441	-0.001373	-0.00412	0.10574	-0.006866	-0.003967	-0.019226
13.9	0.006409	-0.09079	-0.073242	0.009918	0.075684	0.075073	0.06012	-0.002136	0.030518	0.047302	0.06485	0.005341	-0.010071	0.079651	0.35233	0.002136	0.009003	-0.022125	0.15503	-0.025787	0.18799	0.080414	-0.086517	-0.059204	0.014648	-0.003662	0.15274	-0.008698	0.11414	-0.042725	-0.002441	-0.016785
13.901	-0.000763	-0.10239	-0.11398	0.016174	0.035553	0.075531	0.096741	0.010071	0.023956	-0.002136	-0.12436	0.000458	0.14297	0.092773	-0.062561	0.007935	-0.019684	-0.045471	-0.07309	0.020294	-0.007324	0.083771	-0.052795	-0.11078	0.094147	-0.003662	-0.3096	-0.000458	0.22675	-0.081329	-0.002136	-0.020294
13.902	0.007019	-0.11978	-0.15503	-0.001068	0.022583	0.021973	0.11978	0.006714	0.019226	-0.014648	-0.40787	0.005646	0.17319	0.12512	-0.012665	0.010071	-0.0354	-0.026703	-0.079193	0.060883	-0.053406	0.064697	0.012665	-0.044556	0.14206	-0.001373	-0.41336	-0.010986	0.1532	-0.068665	-0.002594	-0.022278
13.903	0.005798	-0.094147	-0.098724	0.001831	0.015411	0.004578	0.084076	0.001984	0.010986	-0.012512	-0.34973	0.000153	-0.058594	0.11475	0.05127	-0.011749	-0.052795	-0.019836	0.031738	0.048676	0.047913	0.001373	-0.083618	-0.052185	0.16083	0.000916	0.3717	-0.005646	0.11154	-0.035706	-0.000153	-0.014343
13.904	0.010223	-0.096893	-0.13962	0.009918	0.01358	0.019226	0.095062	-0.002441	0.043793	-0.068207	-0.076447	0.002136	-0.28976	0.062866	0.010376	0.011597	-0.026093	0.013428	0.022125	-0.002289	0.072327	-0.039825	0.070343	-0.08728	0.15747	-0.007019	0.62378	-0.005646	0.023956	0.12131	-0.006866	-0.00351
13.905	-0.031433	-0.075684	-0.20447	0.002899	0.018158	0.03479	0.10254	-0.006714	0.051422	-0.05661	0.14725	0.010986	-0.21393	-0.041199	-0.24994	-0.005035	-0.014343	-0.000305	-0.062714	-0.053864	0.010376	-0.074615	0.10529	-0.04837	0.15182	0.000305	0.1503	-0.006866	0.017242	0.13641	-0.00061	-0.007629
13.906	0.008698	-0.090485	-0.22003	0.006561	0.007019	0.022278	0.11673	-0.00824	0.078735	-0.063934	0.28824	0.000763	0.010529	-0.088501	0.056305	-0.021515	-0.021667	0.040131	-0.037384	-0.042114	-0.032959	-0.12222	0.051575	0.005951	0.18814	-0.000305	-0.62897	-0.001373	0.01236	0.062256	-0.002289	-0.008392
13.907	0.004425	-0.11093	-0.067596	-0.003967	0.003052	-0.021362	0.088959	-0.001526	0.059662	-0.083618	0.39581	-0.000458	0.088806	-0.024719	-0.039368	-0.00412	-0.012512	-0.005951	-0.036011	-0.037689	-0.02533	-0.17181	-0.069885	-0.054474	0.10559	0.003204	-0.70587	-0.002899	-0.027771	0.084686	-0.003357	-0.005035
13.908	0.021667	-0.10956	-0.18112	-0.013428	-0.002594	-0.057983	0.078888	0.001984	-0.046844	-0.075684	0.27374	0.002594	-0.1181	-0.022278	-0.11139	0.007172	-0.003052	0.005341	-0.069275	0.026703	0.074768	-0.14099	-0.13687	-0.09079	-0.072021	0.001984	-0.36285	-0.006866	-0.089569	0.13626	-0.001373	-0.007477
13.909	-0.001221	-0.11444	-0.09079	-0.001831	0	-0.080719	0.098267	0.000916	-0.097351	-0.081024	0.034943	0.004425	-0.066376	-0.022125	-0.38162	0.000153	-0.004883	0.015564	-0.003052	0.081329	0.11429	-0.22629	-0.050812	-0.079041	-0.32394	0	-0.072784	-0.009003	-0.063629	0.13702	-0.000916	-0.004883
13.91	-0.003052	-0.11581	-0.031281	0.000763	0.004272	-0.052032	0.055084	0.003815	-0.13275	-0.089874	-0.10223	0.000153	0.063019	0.034943	-0.24277	0.003662	0.010376	0.007935	0.1268	0.048828	0.13214	-0.2269	0.06012	-0.15823	-0.495	0.001068	0.072021	0.002289	-0.013275	0.12146	0.00061	-0.014038
13.911	-0.002594	-0.103	0.092316	0.007477	-0.001831	0.1004	0.032043	0.006256	-0.14771	-0.082397	-0.22064	0.00351	0.14435	0.035248	-0.008087	-0.007935	0.008087	-0.035095	0.070343	-0.023346	0.13031	-0.085449	0.040283	-0.18112	-0.39368	0.000458	0.10452	-0.007019	0.049744	0.10178	0.000153	-0.015717
13.912	0.002136	-0.1181	-0.061035	0.010681	-0.005951	0.083923	0.017395	0.005493	-0.082092	-0.070648	-0.27298	0.003052	0.24033	-0.018921	-0.34729	-0.015106	0.001068	-0.024719	0.034637	-0.030518	0.1326	0.017242	-0.082245	-0.13886	-0.19638	0.000763	0.070953	0.000153	0.075073	0.08255	-0.001373	-0.012207
13.913	0.006409	-0.11398	-0.10254	0.007172	-0.011444	0.041504	0.049438	0.002441	0.015411	-0.045013	-0.14313	0.009918	-0.11673	-0.019379	-0.28412	-0.010529	0.010986	-0.010223	-0.12833	-0.016937	0.17197	0.032806	-0.059967	-0.088654	-0.058441	-0.006866	0.026093	-0.005951	0.12528	0.083313	-0.002441	-0.007629
13.914	0.001373	-0.11429	-0.12253	-0.003967	-0.009918	0.050201	0.084229	0.005951	0.15457	-0.04776	-0.010681	0.002441	-0.028839	-0.11627	-0.091858	-0.010529	0.009918	0.013123	-0.17151	-0.031891	0.2652	0.021667	-0.069275	-0.067596	0.19898	-0.011749	0.026245	-0.002441	0.15381	0.065613	-0.003052	-0.014038
13.915	0.003815	-0.10696	-0.04364	-0.002441	-0.011749	0.035858	0.11673	0.000763	0.103	-0.035706	-0.009918	-0.002441	0.036011	-0.081177	0.1387	0.001068	0.000458	-0.000458	-0.010834	0.050201	0.2684	-0.001373	-0.31265	-0.060272	0.36423	-0.008698	-0.068054	-0.007019	0.10437	0.04776	-0.003967	-0.011292
13.916	0.001526	-0.098419	-0.092621	0.006104	0.008698	0.016785	0.11139	-0.007629	0.055084	-0.063629	-0.014801	0.005646	0.15045	-0.053558	0.25116	0.007935	-0.003815	0.00885	-0.047302	0.064697	0.28137	-0.038147	-0.28259	-0.023499	0.31235	-0.010834	-0.12421	0.001526	0.00824	0.031738	-0.003662	-0.012512
13.917	-0.00473	-0.097198	-0.17181	0.006256	0.005646	0.013885	0.12344	0.001221	0.01297	-0.050507	0.11643	0.00412	0.25604	-0.15717	0.31494	-0.005646	0.024719	-0.009308	-0.099335	0.03418	0.28595	-0.047607	-0.075226	-0.078125	0.078583	-0.009766	-0.046692	-0.000153	-0.019989	0.060272	-0.009918	-0.015869
